# xmcd CD database file
#
# Track frame offsets:
#	150
#	24492
#	43837
#	61047
#	81495
#	101915
#	120452
#	140422
#	160082
#	180895
#
# Disc length: 2742 seconds
#
# Revision: 0
# Processed by: cddbd v1.5.1PL0 Copyright (c) Steve Scherf et al.
# Submitted via: CDex 1.51
#
DISCID=7b0ab40a
DTITLE=A-CHIEF - Love Affair
DYEAR=1991
DGENRE=Hard Rock
TTITLE0=Love For Us
TTITLE1=危険なLove Potion
TTITLE2=Sheep In Traps
TTITLE3=どしゃぶりRainy Date
TTITLE4=Little Dreams
TTITLE5=Cinderella
TTITLE6=Bad Boy Story
TTITLE7=Present For You
TTITLE8=99%
TTITLE9=優しい寝顔へ
EXTD=YEAR: 1991
EXTT0=
EXTT1=
EXTT2=
EXTT3=
EXTT4=
EXTT5=
EXTT6=
EXTT7=
EXTT8=
EXTT9=
PLAYORDER=
